<?xml version="1.0" encoding="UTF-8"?>
<svg version="1.1" xmlns="http://www.w3.org/2000/svg" width="123" height="112">
<path d="M0 0 C1.17055939 0.04343536 2.34111877 0.08687073 3.54714966 0.13162231 C6.02340674 0.22463298 8.49955296 0.32063685 10.97558594 0.41943359 C14.71007637 0.56840823 18.4448046 0.70890663 22.1796875 0.84765625 C34.7568292 1.32332333 47.32337901 1.8708961 59.8828125 2.6953125 C68.13599379 25.7582868 76.07551851 48.92243294 83.91357422 72.12963867 C84.48437714 73.81759048 84.48437714 73.81759048 85.06671143 75.53964233 C85.78523731 77.66496231 86.50254885 79.79069335 87.21844482 81.91690063 C87.70126923 83.34502579 87.70126923 83.34502579 88.19384766 84.80200195 C88.47298004 85.62988724 88.75211243 86.45777252 89.03970337 87.31074524 C89.62981818 88.97976815 90.2855512 90.62636296 90.9883728 92.25114441 C91.8828125 94.6953125 91.8828125 94.6953125 91.8828125 98.6953125 C67.09301053 96.75070579 42.33040957 94.5856269 17.57507324 92.24438477 C13.29565706 91.84019798 9.01597921 91.43879985 4.73632812 91.03710938 C-3.54842348 90.25911235 -11.83290026 89.47823877 -20.1171875 88.6953125 C-20.2942715 77.95997619 -20.46021898 67.22453097 -20.61196327 56.48880482 C-20.6827744 51.50374429 -20.75741592 46.51880255 -20.84082031 41.53393555 C-20.92117358 36.72299378 -20.99145327 31.9120005 -21.05475998 27.10080528 C-21.08067718 25.26555653 -21.11021972 23.43035526 -21.14345169 21.59522438 C-21.18938947 19.02420807 -21.22241724 16.45332466 -21.25244141 13.88208008 C-21.2689827 13.12394516 -21.28552399 12.36581024 -21.30256653 11.58470154 C-21.33541902 7.49469715 -20.95100946 4.37263603 -19.1171875 0.6953125 C-12.69780138 -0.51953661 -6.50792148 -0.26749236 0 0 Z M11.5078125 30.8203125 C9.23929769 34.8338387 8.96519296 38.18914512 9.8828125 42.6953125 C13.39861323 47.91230713 18.1290502 49.04456477 23.8828125 50.6953125 C26.68966641 51.54916218 29.18686213 52.49176323 31.8828125 53.6953125 C32.7265625 55.60546875 32.7265625 55.60546875 32.8828125 57.6953125 C30.8828125 60.6953125 30.8828125 60.6953125 27.8828125 61.6953125 C21.31744138 62.1560403 16.07656919 60.82758939 9.8828125 58.6953125 C9.5528125 60.3453125 9.2228125 61.9953125 8.8828125 63.6953125 C14.05684836 68.15653581 20.80702701 68.92716856 27.4921875 68.546875 C32.66312685 67.62721129 35.52572443 65.89167259 38.8828125 61.6953125 C40.43305714 58.59482322 40.17273265 56.11637032 39.8828125 52.6953125 C37.12375306 47.63703687 33.15120771 46.27583106 27.8828125 44.6953125 C26.97789063 44.41558594 26.07296875 44.13585937 25.140625 43.84765625 C22.72613923 43.11236667 20.30755567 42.39590428 17.8828125 41.6953125 C16.96768232 38.70034101 16.60320939 37.27322456 17.9921875 34.40234375 C20.48995257 32.14713024 21.80903817 32.24819036 25.1328125 32.3828125 C26.58880859 32.43501953 26.58880859 32.43501953 28.07421875 32.48828125 C31.39167686 32.73282267 34.60815983 33.11315203 37.8828125 33.6953125 C38.2128125 32.7053125 38.5428125 31.7153125 38.8828125 30.6953125 C29.96171593 24.26382427 20.06046801 23.16793652 11.5078125 30.8203125 Z " fill="#4FAB5B" transform="translate(24.1171875,10.3046875)"/>
<path d="M0 0 C0.33 0 0.66 0 1 0 C1.33 24.09 1.66 48.18 2 73 C8.91804728 73.8661877 8.91804728 73.8661877 15.7421875 74.0625 C16.74507812 74.05476563 17.74796875 74.04703125 18.78125 74.0390625 C19.8021875 74.02617188 20.823125 74.01328125 21.875 74 C23.93484421 73.97456982 25.99474853 73.95350989 28.0546875 73.9375 C28.95687012 73.92589844 29.85905273 73.91429688 30.78857422 73.90234375 C33 74 33 74 35 75 C35 75.66 35 76.32 35 77 C23.10235049 77.32448135 11.97634186 76.19763419 0 75 C0 50.25 0 25.5 0 0 Z " fill="#5B9E62" transform="translate(4,24)"/>
<path d="M0 0 C0 0.66 0 1.32 0 2 C2.475 2.495 2.475 2.495 5 3 C5.6875 5.8125 5.6875 5.8125 6 9 C4.5625 10.875 4.5625 10.875 3 12 C1.75453595 9.50907189 2.2232422 8.58919267 3 6 C-2.72193019 2.23987445 -8.16438328 1.24942248 -15 2 C-19.07337573 3.53712292 -22.10098686 4.99097226 -24 9 C-24.4153921 13.23853792 -24.35069991 16.94790028 -23 21 C-23.66 21.33 -24.32 21.66 -25 22 C-27.80845192 16.55862441 -27.76257896 10.81567615 -26.1875 5 C-25 3 -25 3 -22 2 C-21.67 1.34 -21.34 0.68 -21 0 C-18.06281233 -0.19461488 -15.12550068 -0.38097593 -12.1875 -0.5625 C-11.35412109 -0.61857422 -10.52074219 -0.67464844 -9.66210938 -0.73242188 C-8.85966797 -0.78076172 -8.05722656 -0.82910156 -7.23046875 -0.87890625 C-6.49207764 -0.9260376 -5.75368652 -0.97316895 -4.99291992 -1.02172852 C-3 -1 -3 -1 0 0 Z " fill="#589D62" transform="translate(59,35)"/>
<path d="M0 0 C2.76223278 2.76223278 2.57856291 5.20706617 3 9 C-36.63313956 5.83112696 -36.63313956 5.83112696 -56 4 C-56 3.67 -56 3.34 -56 3 C-52.35418313 2.97112488 -48.70839537 2.95324415 -45.0625 2.9375 C-43.50112305 2.92493164 -43.50112305 2.92493164 -41.90820312 2.91210938 C-40.42416992 2.90727539 -40.42416992 2.90727539 -38.91015625 2.90234375 C-37.53549194 2.89448853 -37.53549194 2.89448853 -36.13305664 2.88647461 C-34 3 -34 3 -33 4 C-31.6302983 4.06243708 -30.25746512 4.0595236 -28.88671875 4.02734375 C-27.6327832 4.00897461 -27.6327832 4.00897461 -26.35351562 3.99023438 C-24.58780396 3.95530821 -22.82216793 3.91630033 -21.05664062 3.87304688 C-20.21681641 3.86208984 -19.37699219 3.85113281 -18.51171875 3.83984375 C-17.74303467 3.82300537 -16.97435059 3.80616699 -16.18237305 3.78881836 C-13.71018638 4.02804439 -12.17206086 4.83426477 -10 6 C-7.18503259 6.45275278 -7.18503259 6.45275278 -4.25 6.625 C-3.26515625 6.69976562 -2.2803125 6.77453125 -1.265625 6.8515625 C-0.51796875 6.90054688 0.2296875 6.94953125 1 7 C0.505 3.535 0.505 3.535 0 0 Z " fill="#569662" transform="translate(113,100)"/>
<path d="M0 0 C1.69566541 2.54349812 2.60177469 4.38232011 3.58813477 7.20849609 C3.88506729 8.05302338 4.18199982 8.89755066 4.4879303 9.76766968 C4.80257736 10.67707306 5.11722443 11.58647644 5.44140625 12.5234375 C5.76914536 13.46176422 6.09688446 14.40009094 6.43455505 15.36685181 C7.12664046 17.351599 7.81661545 19.33708316 8.50463867 21.32324219 C9.55665303 24.35813245 10.61667525 27.3901368 11.67773438 30.421875 C12.34943997 32.3513949 13.02067938 34.28107717 13.69140625 36.2109375 C14.00807755 37.11629242 14.32474884 38.02164734 14.65101624 38.95443726 C14.9447966 39.80526886 15.23857697 40.65610046 15.54125977 41.53271484 C15.79948013 42.27645355 16.0577005 43.02019226 16.32374573 43.78646851 C17.0522464 46.17101414 17.54882299 48.54916565 18 51 C13.89832765 48.94916382 12.58168804 43.08813298 11 39 C10.18161039 36.05144796 9.49260045 33.09254286 8.8125 30.109375 C7.64209407 25.63032153 5.91450426 21.41814818 4.20703125 17.12109375 C2.0130369 11.44794978 0 6.11270716 0 0 Z " fill="#5D9C66" transform="translate(87,24)"/>
<path d="M0 0 C1.36125 0.6496875 1.36125 0.6496875 2.75 1.3125 C7.12292168 3.23013369 11.66247774 4.11717508 16.328125 5.05859375 C19.43764511 6.15419952 20.47695182 7.1012954 22 10 C21.1875 12.75 21.1875 12.75 20 15 C19.34 14.34 18.68 13.68 18 13 C18 11.33333333 18 9.66666667 18 8 C17.00097656 7.87882812 16.00195312 7.75765625 14.97265625 7.6328125 C13.68230469 7.46523438 12.39195313 7.29765625 11.0625 7.125 C9.77472656 6.96257813 8.48695312 6.80015625 7.16015625 6.6328125 C6.11730469 6.42398438 5.07445312 6.21515625 4 6 C3.67 5.34 3.34 4.68 3 4 C2.01 3.67 1.02 3.34 0 3 C0 2.01 0 1.02 0 0 Z " fill="#569962" transform="translate(36,56)"/>
<path d="M0 0 C2 2 2 2 3 9 C-3.93 8.34 -10.86 7.68 -18 7 C-16.68 6.01 -15.36 5.02 -14 4 C-13.45859375 4.31710938 -12.9171875 4.63421875 -12.359375 4.9609375 C-9.5842851 6.18307974 -7.26791902 6.40943436 -4.25 6.625 C-3.26515625 6.69976562 -2.2803125 6.77453125 -1.265625 6.8515625 C-0.51796875 6.90054688 0.2296875 6.94953125 1 7 C0.67 4.69 0.34 2.38 0 0 Z " fill="#5DA167" transform="translate(113,100)"/>
<path d="M0 0 C0.66 0 1.32 0 2 0 C3.03551045 2.93253346 4.05081838 5.87166938 5.0625 8.8125 C5.35705078 9.64587891 5.65160156 10.47925781 5.95507812 11.33789062 C6.3659668 12.54155273 6.3659668 12.54155273 6.78515625 13.76953125 C7.04176025 14.50792236 7.29836426 15.24631348 7.56274414 16.00708008 C8 18 8 18 7 21 C6.66226563 20.08476563 6.32453125 19.16953125 5.9765625 18.2265625 C5.30753906 16.44378906 5.30753906 16.44378906 4.625 14.625 C3.96371094 12.84996094 3.96371094 12.84996094 3.2890625 11.0390625 C2.2049658 7.95506554 2.2049658 7.95506554 0 6 C-0.125 2.875 -0.125 2.875 0 0 Z " fill="#629D6B" transform="translate(105,79)"/>
<path d="M0 0 C1.74965358 -0.05429959 3.49979787 -0.09292823 5.25 -0.125 C6.22453125 -0.14820312 7.1990625 -0.17140625 8.203125 -0.1953125 C11.0196498 0.00137219 12.60949036 0.55431084 15 2 C14 3 14 3 10.3125 3.1875 C6.5586147 3.15368121 3.50557404 2.40222961 0 1 C0 0.67 0 0.34 0 0 Z " fill="#579761" transform="translate(38,70)"/>
<path d="M0 0 C0.88945313 0.07863281 1.77890625 0.15726562 2.6953125 0.23828125 C3.77425781 0.46064453 3.77425781 0.46064453 4.875 0.6875 C5.205 1.3475 5.535 2.0075 5.875 2.6875 C4.10450311 2.74160687 2.33353151 2.78034119 0.5625 2.8125 C-0.91669922 2.84730469 -0.91669922 2.84730469 -2.42578125 2.8828125 C-5.125 2.6875 -5.125 2.6875 -8.125 0.6875 C-4.98117176 -0.36044275 -3.25296561 -0.31770947 0 0 Z " fill="#5C9A62" transform="translate(51.125,100.3125)"/>
<path d="M0 0 C1.98 0.99 1.98 0.99 4 2 C4.08114106 3.77007714 4.13925505 5.54122098 4.1875 7.3125 C4.22230469 8.29863281 4.25710937 9.28476563 4.29296875 10.30078125 C4 13 4 13 2.48828125 14.85546875 C1.99714844 15.23316406 1.50601563 15.61085938 1 16 C1.165 15.484375 1.33 14.96875 1.5 14.4375 C2.57426183 9.20047358 2.33791086 4.82194115 0 0 Z " fill="#589961" transform="translate(61,58)"/>
<path d="M0 0 C4.62 0 9.24 0 14 0 C14 0.33 14 0.66 14 1 C9.38 1.66 4.76 2.32 0 3 C0 2.01 0 1.02 0 0 Z " fill="#5EA76A" transform="translate(38,35)"/>
<path d="M0 0 C0 0.66 0 1.32 0 2 C-3.3 2 -6.6 2 -10 2 C-5.86678317 -0.75547789 -4.77928863 -1.13193678 0 0 Z " fill="#5AA666" transform="translate(39,99)"/>
<path d="M0 0 C2.76223278 2.76223278 2.57856291 5.20706617 3 9 C1.68 8.67 0.36 8.34 -1 8 C-0.7525 7.13375 -0.7525 7.13375 -0.5 6.25 C0.14462031 3.73335631 0.14462031 3.73335631 0 0 Z " fill="#65996A" transform="translate(113,100)"/>
<path d="M0 0 C0.66 0 1.32 0 2 0 C2.33 2.64 2.66 5.28 3 8 C2.01 7.34 1.02 6.68 0 6 C-0.1875 2.875 -0.1875 2.875 0 0 Z " fill="#59A266" transform="translate(105,79)"/>
<path d="M0 0 C1.2065625 0.0309375 1.2065625 0.0309375 2.4375 0.0625 C2.4375 1.0525 2.4375 2.0425 2.4375 3.0625 C0.4575 4.0525 0.4575 4.0525 -1.5625 5.0625 C-1.5625 4.4025 -1.5625 3.7425 -1.5625 3.0625 C-2.2225 2.4025 -2.8825 1.7425 -3.5625 1.0625 C-2.5625 0.0625 -2.5625 0.0625 0 0 Z " fill="#579069" transform="translate(14.5625,9.9375)"/>
</svg>
